<?xml version="1.0" encoding="utf-8"?>
<!-- Generator: Adobe Illustrator 26.4.0, SVG Export Plug-In . SVG Version: 6.00 Build 0)  -->
<svg version="1.1" id="Layer_1" xmlns="http://www.w3.org/2000/svg" xmlns:xlink="http://www.w3.org/1999/xlink" x="0px" y="0px"
	 viewBox="0 0 100.5 100.5" style="enable-background:new 0 0 100.5 100.5;" xml:space="preserve">
<style type="text/css">
	.st0{fill:#F4F4F4;stroke:#F4EFF0;stroke-width:3;stroke-miterlimit:10;}
</style>
<path class="st0" d="M99,50.3C99,77.2,77.2,99,50.3,99S1.5,77.2,1.5,50.3S23.3,1.5,50.3,1.5S99,23.3,99,50.3z M50.9,6.6
	C26.7,6.6,7.1,26.1,7.1,50.3s19.6,43.8,43.8,43.8s43.8-19.6,43.8-43.8S75.1,6.6,50.9,6.6z M52.6,72.3l19.5-37.5l-5.6,0L50.5,66.6
	h-0.2l-15.7-32l-5.6,0l19,37.7L52.6,72.3L52.6,72.3z"/>
</svg>
